<svg version="1.2" xmlns="http://www.w3.org/2000/svg" viewBox="0 0 800 800" width="25" height="25">
	<style>
		.s0 { fill: #ffffff;stroke: #ffffff;stroke-width: .8 } 
	</style>
	<g id="SVGRepo_bgCarrier">
	</g>
	<g id="SVGRepo_tracerCarrier">
	</g>
	<g id="SVGRepo_iconCarrier">
		<path class="s0" d="m675 400c-3.28 0-6.53 0.65-9.57 1.9-3.03 1.26-5.79 3.1-8.11 5.42-2.32 2.32-4.16 5.08-5.42 8.11-1.25 3.04-1.9 6.29-1.9 9.57v75c0 6.63 2.63 12.99 7.32 17.68 4.69 4.69 11.05 7.32 17.68 7.32 6.63 0 12.99-2.63 17.68-7.32 4.69-4.69 7.32-11.05 7.32-17.68v-75c0-3.28-0.65-6.53-1.9-9.57-1.26-3.03-3.1-5.79-5.42-8.11-2.32-2.32-5.08-4.16-8.11-5.42-3.04-1.25-6.29-1.9-9.57-1.9zm14-95.75q-0.52-0.36-1.06-0.68-0.55-0.32-1.11-0.6-0.57-0.28-1.15-0.52-0.58-0.25-1.18-0.45-0.56-0.28-1.14-0.52-0.58-0.23-1.17-0.42-0.6-0.19-1.21-0.33-0.61-0.14-1.23-0.23-3.01-0.6-6.08-0.46-3.07 0.15-6.01 1.03-2.94 0.88-5.59 2.45-2.64 1.57-4.82 3.73-1.74 1.75-3.1 3.81-1.36 2.06-2.29 4.34-0.94 2.29-1.41 4.71-0.46 2.42-0.45 4.89c0 6.63 2.63 12.99 7.32 17.68 4.69 4.69 11.05 7.32 17.68 7.32 6.63 0 12.99-2.63 17.68-7.32 4.69-4.69 7.32-11.05 7.32-17.68q-0.03-2.46-0.53-4.87-0.49-2.41-1.42-4.69-0.93-2.28-2.26-4.34-1.34-2.07-3.04-3.85z"/>
		<path class="s0" d="m625 100h-25c0-9.85-1.94-19.6-5.71-28.7-3.77-9.1-9.29-17.37-16.26-24.33-6.96-6.97-15.23-12.49-24.33-16.26-9.1-3.77-18.85-5.71-28.7-5.71h-250c-9.85 0-19.6 1.94-28.7 5.71-9.1 3.77-17.37 9.29-24.33 16.26-6.97 6.96-12.49 15.23-16.26 24.33-3.77 9.1-5.71 18.85-5.71 28.7h-25c-9.68 0-19.28 1.87-28.25 5.51-8.97 3.65-17.15 8.99-24.09 15.75-6.94 6.75-12.5 14.78-16.39 23.65-3.88 8.87-6.01 18.41-6.27 28.09v529c0.26 9.68 2.39 19.22 6.27 28.09 3.89 8.87 9.45 16.9 16.39 23.65 6.94 6.76 15.12 12.1 24.09 15.75 8.97 3.64 18.57 5.51 28.25 5.51h450c9.68 0 19.28-1.87 28.25-5.51 8.97-3.65 17.15-8.99 24.09-15.75 6.94-6.75 12.5-14.78 16.39-23.65 3.88-8.87 6.01-18.41 6.27-28.09v-127c0-6.63-2.63-12.99-7.32-17.68-4.69-4.69-11.05-7.32-17.68-7.32-6.63 0-12.99 2.63-17.68 7.32-4.69 4.69-7.32 11.05-7.32 17.68v127c-0.25 3.11-1.08 6.15-2.45 8.95-1.37 2.81-3.25 5.34-5.54 7.45-2.3 2.11-4.97 3.78-7.88 4.91-2.91 1.13-6.01 1.7-9.13 1.69h-450c-3.12 0.01-6.22-0.56-9.13-1.69-2.91-1.13-5.58-2.8-7.88-4.91-2.29-2.11-4.17-4.64-5.54-7.45-1.37-2.8-2.2-5.84-2.45-8.95v-529c0.25-3.11 1.08-6.15 2.45-8.95 1.37-2.81 3.25-5.34 5.54-7.45 2.3-2.11 4.97-3.78 7.88-4.91 2.91-1.13 6.01-1.7 9.13-1.69h25c0 9.85 1.94 19.6 5.71 28.7 3.77 9.1 9.29 17.37 16.26 24.33 6.96 6.97 15.23 12.49 24.33 16.26 9.1 3.77 18.85 5.71 28.7 5.71h250c9.85 0 19.6-1.94 28.7-5.71 9.1-3.77 17.37-9.29 24.33-16.26 6.97-6.96 12.49-15.23 16.26-24.33 3.77-9.1 5.71-18.85 5.71-28.7h25c3.12-0.01 6.22 0.56 9.13 1.69 2.91 1.13 5.58 2.8 7.88 4.91 2.29 2.11 4.17 4.64 5.54 7.45 1.37 2.8 2.2 5.84 2.45 8.95v52c0 6.63 2.63 12.99 7.32 17.68 4.69 4.69 11.05 7.32 17.68 7.32 6.63 0 12.99-2.63 17.68-7.32 4.69-4.69 7.32-11.05 7.32-17.68v-52c-0.26-9.68-2.39-19.22-6.27-28.09-3.89-8.87-9.45-16.9-16.39-23.65-6.94-6.76-15.12-12.1-24.09-15.75-8.97-3.64-18.57-5.51-28.25-5.51zm-75 50c0 3.28-0.65 6.53-1.9 9.57-1.26 3.03-3.1 5.79-5.42 8.11-2.32 2.32-5.08 4.16-8.11 5.42-3.04 1.25-6.29 1.9-9.57 1.9h-250c-3.28 0-6.53-0.65-9.57-1.9-3.03-1.26-5.79-3.1-8.11-5.42-2.32-2.32-4.16-5.08-5.42-8.11-1.25-3.04-1.9-6.29-1.9-9.57v-50c0-3.28 0.65-6.53 1.9-9.57 1.26-3.03 3.1-5.79 5.42-8.11 2.32-2.32 5.08-4.16 8.11-5.42 3.04-1.25 6.29-1.9 9.57-1.9h250c3.28 0 6.53 0.65 9.57 1.9 3.03 1.26 5.79 3.1 8.11 5.42 2.32 2.32 4.16 5.08 5.42 8.11 1.25 3.04 1.9 6.29 1.9 9.57z"/>
		<path class="s0" d="m556.5 333.25l-206.5 230.5-107.25-106.5c-4.78-4.1-10.93-6.24-17.23-5.99-6.29 0.24-12.26 2.85-16.71 7.3-4.45 4.45-7.06 10.42-7.3 16.71-0.25 6.3 1.89 12.45 5.99 17.23l125 125q1.71 1.75 3.74 3.13 2.02 1.39 4.27 2.35 2.25 0.97 4.65 1.48 2.39 0.5 4.84 0.54 2.55-0.06 5.04-0.63 2.49-0.57 4.81-1.64 2.32-1.06 4.38-2.57 2.06-1.51 3.77-3.41l225-250c4.4-4.96 6.69-11.45 6.34-18.07-0.35-6.62-3.32-12.83-8.25-17.27-4.93-4.43-11.42-6.73-18.04-6.37-6.62 0.35-12.83 3.31-17.26 8.24z"/>
	</g>
</svg>