<svg width="344" height="376" viewBox="0 0 344 376" fill="none" xmlns="http://www.w3.org/2000/svg">
<path d="M47.0621 152.797C50.7288 160.464 57.6621 177.397 56.0621 183.797C54.0621 191.797 41.0621 216.297 41.5621 224.297C42.0621 232.297 21.5621 268.297 95.0621 323.297C153.862 367.297 227.229 330.297 256.562 306.297L247.062 315.297C251.229 316.797 261.762 318.897 270.562 315.297C281.562 310.797 311.062 266.797 262.562 277.297" stroke="#FFE8CE" stroke-width="6"/>
<path d="M252.562 84.7973C236.395 60.1306 190.862 16.1973 138.062 37.7973C72.0621 64.7973 48.5621 131.797 32.0621 125.797C18.8621 120.997 16.5621 132.797 17.0621 139.297C18.3954 150.964 28.1621 170.797 56.5621 156.797" stroke="#FFE8CE" stroke-width="5"/>
<path d="M225.062 52.2973C264.895 75.4639 335.562 130.597 299.562 165.797C295.562 169.397 301.562 169.297 305.062 168.797C314.229 167.464 326.562 169.897 302.562 190.297" stroke="#FFE8CE" stroke-width="5"/>
<path d="M299.562 192.297C313.895 204.797 338.262 239.797 321.062 279.797C299.562 329.797 255.562 332.797 249.562 328.797" stroke="#FFE8CE" stroke-width="5"/>
<path d="M147.562 238.797C139.895 233.964 125.662 229.097 130.062 248.297" stroke="#FFE8CE" stroke-width="3"/>
<path d="M112.062 283.297C127.729 297.464 163.062 316.797 179.062 280.797" stroke="#FFE8CE" stroke-width="3"/>
<path d="M136.562 313.297C140.729 317.631 150.562 323.697 156.562 313.297" stroke="#FFE8CE" stroke-width="2"/>
<path d="M237.562 186.297C242.895 186.964 253.762 189.797 254.562 195.797" stroke="#FFE8CE" stroke-width="3"/>
<path d="M256.062 204.797C257.895 207.297 260.462 213.397 256.062 217.797" stroke="#FFE8CE" stroke-width="3"/>
<path d="M222.562 172.797C217.729 147.464 200.762 99.2973 171.562 109.297" stroke="#FFE8CE" stroke-width="3"/>
<path d="M137.062 124.297C123.062 131.797 93.2621 146.797 86.0621 146.797" stroke="#FFE8CE" stroke-width="3"/>
<path d="M160.062 127.797C162.717 127.467 167.702 125.807 171.877 124.882C175.593 124.059 180.042 125.787 183.62 127.865C188.938 130.953 191.042 136.437 192.972 140.945C195.696 147.306 197.052 153.907 199.387 161.195C199.892 162.292 200.222 162.787 200.557 163.372C200.892 163.957 201.222 164.617 201.562 165.297" stroke="#FFE8CE" stroke-width="3" stroke-linecap="round"/>
<path d="M167.062 135.297C169.707 135.297 176.042 135.957 179.052 137.872C181.722 140.622 183.722 144.277 185.217 148.267C186.052 150.277 187.042 152.257 188.062 155.297" stroke="#FFE8CE" stroke-width="3" stroke-linecap="round"/>
<ellipse cx="97.5621" cy="200.297" rx="5" ry="18" fill="#FFE8CE"/>
<ellipse cx="203.214" cy="217.94" rx="5" ry="18" transform="rotate(19.2383 203.214 217.94)" fill="#FFE8CE"/>
<path d="M214.062 190.297C217.895 190.964 224.862 194.897 222.062 205.297" stroke="#FFE8CE" stroke-width="2"/>
<path d="M90.0947 174.74C86.2292 174.297 78.435 176.101 78.1825 186.869" stroke="#FFE8CE" stroke-width="2"/>
<path d="M174.062 290.297C169.729 272.297 160.762 249.297 159.562 301.297" stroke="#FFE8CE" stroke-width="2"/> 
<path d="M228.062 259.047C227.815 258.715 226.322 258.382 219.173 258.339C217.233 258.327 214.255 260.445 209.926 263.815C207.055 266.05 205.982 267.875 205.358 269.781C204.935 271.074 204.817 273.172 204.731 275.885C204.645 278.597 204.727 281.897 205.1 284.587C205.756 289.325 207.472 292.37 208.967 294.614C210.643 297.128 212.307 298.71 213.387 299.5C215.997 301.409 221.862 301.047 225.095 300.26C229.027 299.302 231.472 296.637 233.14 295.344C234.515 294.276 236.137 291.892 237.101 290.095C237.852 288.694 238.392 287.552 239.308 285.225C240.531 282.118 240.227 279.802 240.23 274.029C240.231 271.887 238.817 270.802 238.065 269.76C237.298 268.697 237.397 267.552 237.063 266.551C236.73 265.55 236.232 264.552 233.905 262.099C233.397 261.55 233.232 261.302 233.062 260.797" stroke="#FFE8CE" stroke-width="2" stroke-linecap="round"/>
<path d="M55.8121 234.297C58.5396 234.297 63.7221 234.462 65.1809 235.417C67.216 236.75 68.5521 238.617 69.6009 240.956C70.5701 243.118 71.0621 246.447 71.2696 248.416C71.5021 250.622 71.8121 254.767 71.3559 257.292C71.1128 258.637 70.7321 260.122 70.1059 261.335C69.2438 263.004 66.9921 265.537 65.0684 266.627C63.3746 267.587 61.4071 268.292 59.8584 268.589C59.313 268.693 57.9896 268.797 56.1996 268.632C55.4821 268.467 55.1521 268.137 54.9409 267.802C54.7296 267.467 54.6471 267.137 54.5621 266.797" stroke="#FFE8CE" stroke-width="2" stroke-linecap="round"/>
<path d="M49.5621 240.297C48.8971 240.877 48.0671 242.372 47.6046 243.544C47.234 244.482 47.3121 249.337 47.5608 252.501C47.6446 252.795 47.7271 253.042 47.8521 253.335C47.9771 253.627 48.1421 253.957 48.5621 254.797" stroke="#FFE8CE" stroke-width="2" stroke-linecap="round"/>
<path d="M55.5621 238.547C54.4846 239.625 52.9821 241.292 52.3559 242.501C52.1471 243.042 51.9796 243.545 51.7721 244.044C51.6471 244.295 51.4821 244.542 51.3121 244.797" stroke="#FFE8CE" stroke-width="2" stroke-linecap="round"/>
<path d="M57.5621 240.547C57.1471 241.545 55.6571 242.872 54.0671 244.459C52.7718 245.751 51.7321 247.042 51.5196 247.879C51.2167 249.071 54.0571 246.967 55.1821 246.425C56.1032 245.981 57.0571 245.3 57.8896 245.049C58.2127 244.951 58.3921 245.292 58.3121 245.544C57.8298 247.058 56.2321 248.207 55.1908 249.501C54.3373 250.562 53.8146 251.795 53.3983 252.294C53.2044 252.526 53.1471 252.792 53.4758 252.755C57.4023 252.307 60.8096 248.8 61.2259 248.549C63.2795 247.309 56.6521 255.532 55.8146 257.044C55.6682 257.308 55.4821 257.542 56.0983 257.299C59.9823 255.762 61.1371 254.552 62.5159 254.007C62.8127 253.89 63.0571 253.717 63.2259 253.756C63.3946 253.795 63.4771 254.042 63.4783 254.376C63.4838 255.833 59.1821 260.092 57.5171 262.422C55.9223 264.654 61.3871 260.217 63.3883 259.674C63.797 259.562 64.0571 259.712 64.1846 259.879C64.1471 260.877 63.5646 261.877 63.1071 262.501C62.8971 262.795 62.7321 263.042 62.5621 263.297" stroke="#FFE8CE" stroke-width="2" stroke-linecap="round"/>
<path d="M211.812 267.547C211.397 267.96 210.897 269.457 209.9 271.456C209.115 273.029 208.647 273.795 208.603 274.046C208.278 275.917 212.387 271.552 213.725 270.302C215.065 269.049 216.392 267.552 217.35 266.51C217.629 266.205 217.972 265.887 218.142 265.882C219.302 265.848 217.152 268.872 215.32 271.702C213.619 274.328 212.237 276.452 211.025 278.54C210.434 279.557 209.65 280.872 209.437 281.916C209.229 282.938 212.137 280.637 213.635 279.39C214.858 278.371 217.292 275.652 220.54 272.072C222.379 270.045 224.462 267.565 227.003 265.105C227.83 264.305 227.977 264.707 227.607 265.661C225.832 270.238 224.402 271.867 222.573 274.862C219.776 279.444 217.732 282.96 217.15 283.791C216.185 285.168 215.732 286.457 215.313 287.544C215.218 287.791 215.147 288.042 215.352 287.964C216.15 287.657 219.862 284.655 225.068 280.824C229.76 277.371 232.31 272.965 232.355 273.5C232.532 275.613 230.235 277.54 228.988 279.284C226.28 283.073 224.492 286.192 223.232 288.582C222.711 289.571 221.817 291.285 221.232 292.912C220.729 294.312 224.467 290.387 229.708 285.899C232.327 283.655 233.307 282.137 234.267 280.884C234.406 280.703 234.642 281.042 234.727 281.376C234.912 282.104 233.822 284.28 232.157 287.111C231.237 288.675 229.987 290.78 229.026 293.24C228.756 293.929 229.467 293.637 229.971 293.261C230.887 292.472 231.56 291.882 231.976 291.467C232.145 291.217 232.227 290.887 232.812 290.297" stroke="#FFE8CE" stroke-width="2" stroke-linecap="round"/>
</svg>
                                           